<svg width="10" height="10" viewBox="0 0 10 10" fill="none" xmlns="http://www.w3.org/2000/svg">
<path d="M1.25 8.0625C1.25 8.23828 1.38672 8.375 1.5625 8.375H9.375C9.70703 8.375 10 8.66797 10 9C10 9.35156 9.70703 9.625 9.375 9.625H1.5625C0.683594 9.625 0 8.94141 0 8.0625V1.5C0 1.16797 0.273438 0.875 0.625 0.875C0.957031 0.875 1.25 1.16797 1.25 1.5V8.0625ZM6.67969 5.69922C6.44531 5.95312 6.03516 5.95312 5.80078 5.69922L4.6875 4.58594L2.92969 6.32422C2.69531 6.57812 2.28516 6.57812 2.05078 6.32422C1.79688 6.08984 1.79688 5.67969 2.05078 5.44531L4.23828 3.25781C4.47266 3.00391 4.88281 3.00391 5.11719 3.25781L6.25 4.37109L8.30078 2.32031C8.53516 2.06641 8.94531 2.06641 9.17969 2.32031C9.43359 2.55469 9.43359 2.96484 9.17969 3.19922L6.67969 5.69922Z" fill="#616161"/>
</svg>
