<svg width="10" height="11" viewBox="0 0 10 11" fill="none" xmlns="http://www.w3.org/2000/svg">
<path d="M5 0.25C7.75391 0.25 10 2.49609 10 5.25C10 8.02344 7.75391 10.25 5 10.25C2.22656 10.25 0 8.02344 0 5.25C0 2.49609 2.22656 0.25 5 0.25ZM5 9.3125C7.22656 9.3125 9.0625 7.49609 9.0625 5.25C9.0625 3.02344 7.22656 1.1875 5 1.1875C2.75391 1.1875 0.9375 3.02344 0.9375 5.25C0.9375 7.49609 2.75391 9.3125 5 9.3125ZM5 6.8125C5.33203 6.8125 5.625 7.08594 5.625 7.4375C5.625 7.78906 5.33203 8.0625 5 8.0625C4.62891 8.0625 4.375 7.78906 4.375 7.4375C4.375 7.08594 4.64844 6.8125 5 6.8125ZM5.64453 2.75C6.42578 2.75 7.03125 3.35547 7.01172 4.11719C7.01172 4.58594 6.75781 5.03516 6.34766 5.28906L5.46875 5.83594V5.875C5.46875 6.12891 5.25391 6.34375 5 6.34375C4.74609 6.34375 4.53125 6.12891 4.53125 5.875V5.5625C4.53125 5.40625 4.60938 5.25 4.76562 5.15234L5.87891 4.48828C6.01562 4.41016 6.09375 4.27344 6.09375 4.11719C6.09375 3.88281 5.87891 3.6875 5.625 3.6875H4.62891C4.39453 3.6875 4.21875 3.88281 4.21875 4.11719C4.21875 4.37109 4.00391 4.58594 3.75 4.58594C3.49609 4.58594 3.28125 4.37109 3.28125 4.11719C3.28125 3.35547 3.88672 2.75 4.64844 2.75H5.64453Z" fill="#616161"/>
</svg>
